<svg xmlns="http://www.w3.org/2000/svg" viewBox="0 0 32 32" shape-rendering="crispEdges">
  <rect width="32" height="32" fill="none"/>

  <!-- mane stroke -->
  <g fill="#101522">
    <rect x="8" y="8" width="2" height="1"/>
    <rect x="10" y="7" width="2" height="1"/>
    <rect x="12" y="7" width="2" height="1"/>
    <rect x="14" y="8" width="2" height="1"/>
    <rect x="16" y="9" width="2" height="1"/>
    <rect x="18" y="10" width="1" height="1"/>
    <rect x="7" y="9" width="1" height="1"/>
    <rect x="6" y="10" width="1" height="1"/>
  </g>

  <!-- horse head silhouette fill -->
  <g fill="#b98557">
    <rect x="9" y="10" width="8" height="1"/>
    <rect x="8" y="11" width="10" height="1"/>
    <rect x="8" y="12" width="10" height="1"/>
    <rect x="9" y="13" width="9" height="1"/>
    <rect x="10" y="14" width="8" height="1"/>
    <rect x="11" y="15" width="7" height="1"/>
    <rect x="12" y="16" width="6" height="1"/>
    <rect x="12" y="17" width="5" height="1"/>
    <rect x="12" y="18" width="5" height="1"/>
    <rect x="11" y="19" width="5" height="1"/>
    <rect x="10" y="20" width="5" height="1"/>
    <rect x="9" y="21" width="4" height="1"/>
    <rect x="9" y="22" width="3" height="1"/>
    <rect x="10" y="23" width="2" height="1"/>
  </g>

  <!-- outline -->
  <g fill="#101522">
    <rect x="8" y="10" width="1" height="1"/>
    <rect x="17" y="10" width="1" height="1"/>
    <rect x="7" y="11" width="1" height="2"/>
    <rect x="18" y="11" width="1" height="8"/>
    <rect x="8" y="13" width="1" height="1"/>
    <rect x="9" y="14" width="1" height="1"/>
    <rect x="10" y="15" width="1" height="1"/>
    <rect x="11" y="16" width="1" height="3"/>
    <rect x="10" y="19" width="1" height="1"/>
    <rect x="9" y="20" width="1" height="2"/>
    <rect x="8" y="22" width="1" height="1"/>
    <rect x="9" y="23" width="1" height="1"/>
    <rect x="10" y="24" width="2" height="1"/>
    <rect x="12" y="23" width="1" height="1"/>
    <rect x="13" y="22" width="1" height="1"/>
    <rect x="14" y="21" width="1" height="1"/>
    <rect x="15" y="20" width="1" height="1"/>
    <rect x="16" y="19" width="1" height="1"/>
  </g>

  <!-- neck accent stroke -->
  <g fill="#101522">
    <rect x="12" y="24" width="1" height="1"/>
    <rect x="13" y="25" width="1" height="1"/>
    <rect x="14" y="26" width="1" height="1"/>
  </g>
</svg>
